<?xml version="1.0" encoding="UTF-8"?>
<svg xmlns="http://www.w3.org/2000/svg" xmlns:xlink="http://www.w3.org/1999/xlink" width="32px" height="32px" viewBox="0 0 32 32" version="1.1">
<g id="surface1">
<path style=" stroke:none;fill-rule:nonzero;fill:rgb(51.372552%,12.941177%,74.901962%);fill-opacity:1;" d="M 22.113281 10.542969 C 21.628906 10.945312 21.125 11.339844 20.605469 11.734375 C 20.085938 12.128906 19.582031 12.484375 19.09375 12.796875 C 18.605469 13.109375 18.148438 13.363281 17.722656 13.554688 C 17.300781 13.75 16.941406 13.847656 16.65625 13.847656 C 16.441406 13.847656 16.203125 13.78125 15.941406 13.648438 C 15.679688 13.519531 15.433594 13.347656 15.203125 13.144531 C 14.96875 12.9375 14.777344 12.707031 14.621094 12.457031 C 14.464844 12.207031 14.386719 11.96875 14.386719 11.746094 C 14.386719 11.542969 14.453125 11.171875 14.589844 10.628906 C 14.730469 10.085938 14.902344 9.457031 15.117188 8.742188 C 14.152344 10.242188 13.347656 11.386719 12.695312 12.167969 C 12.046875 12.949219 11.558594 13.457031 11.234375 13.695312 C 11.132812 13.757812 11.015625 13.804688 10.886719 13.835938 C 10.753906 13.867188 10.632812 13.882812 10.519531 13.882812 C 10.40625 13.882812 10.296875 13.84375 10.183594 13.761719 C 10.070312 13.679688 9.960938 13.566406 9.855469 13.425781 C 9.746094 13.28125 9.652344 13.117188 9.574219 12.9375 C 9.492188 12.753906 9.433594 12.570312 9.394531 12.382812 C 8.871094 14.058594 8.421875 15.597656 8.054688 17 C 7.683594 18.398438 7.335938 19.605469 7.011719 20.617188 L 2.902344 21.726562 C 3.542969 19.925781 4.15625 18.199219 4.75 16.546875 C 5.34375 14.898438 5.9375 13.261719 6.523438 11.640625 C 7.113281 10.023438 7.714844 8.386719 8.335938 6.734375 C 8.953125 5.085938 9.613281 3.359375 10.3125 1.558594 C 10.339844 1.496094 10.359375 1.46875 10.378906 1.472656 C 10.398438 1.480469 10.433594 1.484375 10.484375 1.484375 C 10.707031 1.519531 11.003906 1.609375 11.375 1.746094 C 11.742188 1.882812 12.105469 2.035156 12.460938 2.203125 C 12.820312 2.375 13.132812 2.539062 13.398438 2.703125 C 13.667969 2.863281 13.820312 2.984375 13.859375 3.058594 C 13.808594 3.144531 13.710938 3.355469 13.570312 3.6875 C 13.425781 4.019531 13.257812 4.414062 13.070312 4.878906 C 12.882812 5.339844 12.6875 5.84375 12.480469 6.386719 C 12.273438 6.933594 12.085938 7.453125 11.917969 7.945312 C 11.75 8.441406 11.609375 8.886719 11.496094 9.289062 C 11.382812 9.6875 11.328125 9.980469 11.328125 10.167969 C 11.328125 10.21875 11.351562 10.242188 11.402344 10.242188 C 11.503906 10.242188 11.71875 10.113281 12.050781 9.851562 C 12.378906 9.585938 12.796875 9.167969 13.296875 8.59375 C 13.796875 8.019531 14.355469 7.28125 14.976562 6.378906 C 15.59375 5.480469 16.25 4.398438 16.9375 3.132812 C 17.050781 2.746094 17.15625 2.421875 17.253906 2.15625 C 17.355469 1.894531 17.425781 1.707031 17.460938 1.59375 C 17.5 1.496094 17.582031 1.445312 17.707031 1.445312 C 17.792969 1.445312 17.984375 1.53125 18.277344 1.699219 C 18.570312 1.867188 18.882812 2.0625 19.214844 2.28125 C 19.546875 2.5 19.84375 2.71875 20.105469 2.9375 C 20.371094 3.15625 20.515625 3.308594 20.539062 3.394531 C 20.539062 3.433594 20.53125 3.5 20.519531 3.59375 C 20.507812 3.6875 20.488281 3.765625 20.464844 3.828125 C 20.339844 4.164062 20.195312 4.5625 20.03125 5.019531 C 19.871094 5.476562 19.703125 5.949219 19.535156 6.445312 C 19.367188 6.9375 19.199219 7.4375 19.039062 7.9375 C 18.875 8.4375 18.726562 8.902344 18.597656 9.335938 C 18.464844 9.765625 18.359375 10.148438 18.277344 10.480469 C 18.195312 10.808594 18.15625 11.050781 18.15625 11.199219 C 18.15625 11.277344 18.195312 11.3125 18.269531 11.3125 C 18.382812 11.3125 18.539062 11.261719 18.746094 11.152344 C 18.953125 11.046875 19.191406 10.90625 19.460938 10.730469 C 19.730469 10.558594 20.015625 10.355469 20.324219 10.121094 C 20.628906 9.890625 20.945312 9.648438 21.269531 9.398438 L 22.113281 10.542969 "/>
</g>
</svg>
