<?xml version="1.0" encoding="UTF-8"?>
<svg xmlns="http://www.w3.org/2000/svg" xmlns:xlink="http://www.w3.org/1999/xlink" width="200px" height="200px" viewBox="0 0 200 200" version="1.1">
<g id="surface1">
<path style=" stroke:none;fill-rule:nonzero;fill:rgb(51.372552%,12.941177%,74.901962%);fill-opacity:1;" d="M 162.796875 93.441406 C 159.75 95.941406 156.601562 98.425781 153.359375 100.886719 C 150.113281 103.347656 146.96875 105.558594 143.917969 107.511719 C 140.871094 109.464844 138.015625 111.050781 135.359375 112.261719 C 132.699219 113.472656 130.472656 114.078125 128.675781 114.078125 C 127.347656 114.078125 125.859375 113.667969 124.21875 112.847656 C 122.578125 112.027344 121.035156 110.972656 119.585938 109.679688 C 118.140625 108.390625 116.929688 106.964844 115.953125 105.402344 C 114.976562 103.835938 114.488281 102.351562 114.488281 100.945312 C 114.488281 99.695312 114.917969 97.367188 115.777344 93.96875 C 116.636719 90.566406 117.730469 86.640625 119.058594 82.183594 C 113.039062 91.566406 108 98.699219 103.933594 103.582031 C 99.867188 108.46875 96.820312 111.65625 94.789062 113.140625 C 94.164062 113.53125 93.4375 113.824219 92.617188 114.019531 C 91.796875 114.214844 91.035156 114.3125 90.332031 114.3125 C 89.628906 114.3125 88.925781 114.058594 88.222656 113.550781 C 87.515625 113.042969 86.832031 112.339844 86.167969 111.441406 C 85.503906 110.539062 84.917969 109.523438 84.410156 108.390625 C 83.902344 107.257812 83.53125 106.105469 83.296875 104.933594 C 80.011719 115.40625 77.21875 125.023438 74.914062 133.777344 C 72.605469 142.53125 70.4375 150.078125 68.40625 156.410156 L 42.726562 163.328125 C 46.710938 152.070312 50.5625 141.28125 54.273438 130.964844 C 57.988281 120.644531 61.679688 110.421875 65.355469 100.300781 C 69.03125 90.175781 72.800781 79.957031 76.671875 69.636719 C 80.539062 59.320312 84.664062 48.53125 89.042969 37.273438 C 89.199219 36.882812 89.335938 36.707031 89.453125 36.746094 C 89.570312 36.785156 89.785156 36.804688 90.097656 36.804688 C 91.503906 37.039062 93.359375 37.585938 95.667969 38.445312 C 97.972656 39.304688 100.238281 40.265625 102.46875 41.320312 C 104.695312 42.375 106.648438 43.410156 108.332031 44.425781 C 110.011719 45.441406 110.96875 46.1875 111.203125 46.65625 C 110.890625 47.203125 110.285156 48.511719 109.386719 50.582031 C 108.488281 52.65625 107.453125 55.136719 106.277344 58.027344 C 105.105469 60.921875 103.875 64.066406 102.585938 67.46875 C 101.296875 70.867188 100.121094 74.113281 99.066406 77.199219 C 98.011719 80.289062 97.132812 83.082031 96.429688 85.585938 C 95.726562 88.085938 95.375 89.921875 95.375 91.09375 C 95.375 91.410156 95.53125 91.566406 95.84375 91.566406 C 96.46875 91.566406 97.816406 90.742188 99.886719 89.101562 C 101.960938 87.460938 104.558594 84.839844 107.6875 81.246094 C 110.8125 77.648438 114.3125 73.039062 118.179688 67.410156 C 122.050781 61.78125 126.132812 55.019531 130.433594 47.125 C 131.136719 44.699219 131.800781 42.667969 132.425781 41.027344 C 133.054688 39.382812 133.484375 38.210938 133.71875 37.507812 C 133.953125 36.882812 134.460938 36.570312 135.242188 36.570312 C 135.789062 36.570312 136.980469 37.097656 138.816406 38.152344 C 140.65625 39.207031 142.609375 40.421875 144.679688 41.789062 C 146.753906 43.15625 148.609375 44.523438 150.25 45.890625 C 151.890625 47.261719 152.792969 48.21875 152.949219 48.765625 C 152.949219 49 152.910156 49.410156 152.832031 49.996094 C 152.753906 50.582031 152.636719 51.070312 152.480469 51.460938 C 151.695312 53.574219 150.796875 56.054688 149.78125 58.90625 C 148.765625 61.761719 147.730469 64.730469 146.675781 67.820312 C 145.617188 70.90625 144.582031 74.015625 143.566406 77.140625 C 142.550781 80.269531 141.632812 83.179688 140.8125 85.878906 C 139.992188 88.574219 139.324219 90.957031 138.816406 93.03125 C 138.308594 95.101562 138.054688 96.605469 138.054688 97.542969 C 138.054688 98.015625 138.289062 98.25 138.757812 98.25 C 139.464844 98.25 140.460938 97.917969 141.75 97.25 C 143.039062 96.585938 144.523438 95.707031 146.207031 94.613281 C 147.886719 93.519531 149.683594 92.25 151.597656 90.800781 C 153.515625 89.355469 155.488281 87.851562 157.519531 86.289062 L 162.796875 93.441406 "/>
</g>
</svg>
