<?xml version="1.0" encoding="UTF-8"?>
<svg xmlns="http://www.w3.org/2000/svg" xmlns:xlink="http://www.w3.org/1999/xlink" width="32px" height="32px" viewBox="0 0 32 32" version="1.1">
<g id="surface1">
<path style=" stroke:none;fill-rule:nonzero;fill:rgb(51.372552%,12.941177%,74.901962%);fill-opacity:1;" d="M 26.046875 14.949219 C 25.558594 15.351562 25.054688 15.746094 24.539062 16.140625 C 24.019531 16.535156 23.515625 16.890625 23.027344 17.203125 C 22.539062 17.515625 22.082031 17.769531 21.65625 17.960938 C 21.230469 18.15625 20.875 18.253906 20.589844 18.253906 C 20.375 18.253906 20.136719 18.1875 19.875 18.054688 C 19.613281 17.925781 19.367188 17.753906 19.132812 17.550781 C 18.902344 17.34375 18.707031 17.113281 18.550781 16.863281 C 18.394531 16.613281 18.316406 16.375 18.316406 16.152344 C 18.316406 15.949219 18.386719 15.578125 18.523438 15.035156 C 18.660156 14.492188 18.835938 13.863281 19.050781 13.148438 C 18.085938 14.648438 17.28125 15.792969 16.628906 16.574219 C 15.980469 17.355469 15.492188 17.863281 15.164062 18.101562 C 15.066406 18.164062 14.949219 18.210938 14.820312 18.242188 C 14.6875 18.273438 14.566406 18.289062 14.453125 18.289062 C 14.339844 18.289062 14.226562 18.25 14.117188 18.167969 C 14.003906 18.085938 13.894531 17.972656 13.785156 17.832031 C 13.679688 17.6875 13.585938 17.523438 13.503906 17.34375 C 13.425781 17.160156 13.363281 16.976562 13.328125 16.789062 C 12.800781 18.464844 12.355469 20.003906 11.984375 21.40625 C 11.617188 22.804688 11.269531 24.011719 10.945312 25.023438 L 6.835938 26.132812 C 7.472656 24.332031 8.089844 22.605469 8.683594 20.953125 C 9.277344 19.304688 9.867188 17.667969 10.457031 16.046875 C 11.042969 14.429688 11.648438 12.792969 12.265625 11.140625 C 12.886719 9.492188 13.546875 7.765625 14.246094 5.964844 C 14.273438 5.902344 14.292969 5.875 14.3125 5.878906 C 14.332031 5.886719 14.367188 5.890625 14.414062 5.890625 C 14.640625 5.925781 14.9375 6.015625 15.308594 6.152344 C 15.675781 6.289062 16.039062 6.441406 16.394531 6.609375 C 16.75 6.78125 17.0625 6.945312 17.332031 7.109375 C 17.601562 7.269531 17.753906 7.390625 17.792969 7.464844 C 17.742188 7.550781 17.644531 7.761719 17.5 8.09375 C 17.359375 8.425781 17.191406 8.820312 17.003906 9.285156 C 16.816406 9.746094 16.621094 10.25 16.414062 10.792969 C 16.207031 11.339844 16.019531 11.859375 15.851562 12.351562 C 15.683594 12.847656 15.542969 13.292969 15.429688 13.695312 C 15.316406 14.09375 15.261719 14.386719 15.261719 14.574219 C 15.261719 14.625 15.285156 14.648438 15.335938 14.648438 C 15.433594 14.648438 15.652344 14.519531 15.980469 14.257812 C 16.3125 13.992188 16.730469 13.574219 17.230469 13 C 17.730469 12.425781 18.289062 11.6875 18.910156 10.785156 C 19.527344 9.886719 20.179688 8.804688 20.871094 7.539062 C 20.980469 7.152344 21.089844 6.828125 21.1875 6.5625 C 21.289062 6.300781 21.355469 6.113281 21.394531 6 C 21.433594 5.902344 21.511719 5.851562 21.636719 5.851562 C 21.726562 5.851562 21.917969 5.9375 22.210938 6.105469 C 22.503906 6.273438 22.816406 6.46875 23.148438 6.6875 C 23.480469 6.90625 23.777344 7.125 24.039062 7.34375 C 24.304688 7.5625 24.445312 7.714844 24.472656 7.800781 C 24.472656 7.839844 24.464844 7.90625 24.453125 8 C 24.441406 8.09375 24.421875 8.171875 24.398438 8.234375 C 24.273438 8.570312 24.128906 8.96875 23.964844 9.425781 C 23.800781 9.882812 23.636719 10.355469 23.46875 10.851562 C 23.300781 11.34375 23.132812 11.84375 22.972656 12.34375 C 22.808594 12.84375 22.660156 13.308594 22.53125 13.742188 C 22.398438 14.171875 22.292969 14.554688 22.210938 14.886719 C 22.128906 15.214844 22.089844 15.457031 22.089844 15.605469 C 22.089844 15.683594 22.125 15.71875 22.203125 15.71875 C 22.3125 15.71875 22.472656 15.667969 22.679688 15.558594 C 22.886719 15.453125 23.125 15.3125 23.394531 15.136719 C 23.660156 14.964844 23.949219 14.761719 24.257812 14.527344 C 24.5625 14.296875 24.878906 14.054688 25.203125 13.804688 L 26.046875 14.949219 "/>
</g>
</svg>
