<?xml version="1.0" encoding="UTF-8"?>
<svg xmlns="http://www.w3.org/2000/svg" xmlns:xlink="http://www.w3.org/1999/xlink" width="32px" height="32px" viewBox="0 0 32 32" version="1.1">
<g id="surface1">
<path style=" stroke:none;fill-rule:nonzero;fill:rgb(51.372552%,12.941177%,74.901962%);fill-opacity:1;" d="M 21.871094 11.421875 C 21.382812 11.820312 20.878906 12.21875 20.359375 12.613281 C 19.839844 13.007812 19.335938 13.359375 18.851562 13.671875 C 18.363281 13.984375 17.90625 14.238281 17.480469 14.433594 C 17.054688 14.625 16.699219 14.722656 16.410156 14.722656 C 16.199219 14.722656 15.960938 14.65625 15.699219 14.527344 C 15.433594 14.394531 15.1875 14.226562 14.957031 14.019531 C 14.726562 13.8125 14.53125 13.585938 14.375 13.335938 C 14.21875 13.085938 14.140625 12.847656 14.140625 12.621094 C 14.140625 12.421875 14.210938 12.050781 14.347656 11.507812 C 14.484375 10.960938 14.660156 10.332031 14.871094 9.621094 C 13.910156 11.121094 13.101562 12.261719 12.453125 13.042969 C 11.800781 13.824219 11.3125 14.335938 10.988281 14.574219 C 10.886719 14.636719 10.773438 14.683594 10.640625 14.714844 C 10.511719 14.746094 10.386719 14.761719 10.277344 14.761719 C 10.164062 14.761719 10.050781 14.71875 9.9375 14.640625 C 9.824219 14.558594 9.714844 14.445312 9.609375 14.300781 C 9.503906 14.15625 9.410156 13.996094 9.328125 13.8125 C 9.246094 13.632812 9.1875 13.449219 9.148438 13.261719 C 8.625 14.9375 8.175781 16.472656 7.808594 17.875 C 7.441406 19.277344 7.09375 20.484375 6.765625 21.496094 L 2.660156 22.601562 C 3.296875 20.800781 3.914062 19.074219 4.507812 17.425781 C 5.101562 15.773438 5.691406 14.140625 6.28125 12.519531 C 6.867188 10.898438 7.472656 9.265625 8.089844 7.613281 C 8.710938 5.960938 9.367188 4.234375 10.070312 2.433594 C 10.09375 2.371094 10.117188 2.34375 10.136719 2.351562 C 10.152344 2.355469 10.1875 2.359375 10.238281 2.359375 C 10.464844 2.398438 10.761719 2.484375 11.128906 2.621094 C 11.5 2.761719 11.859375 2.914062 12.21875 3.082031 C 12.574219 3.25 12.886719 3.417969 13.15625 3.578125 C 13.425781 3.742188 13.578125 3.859375 13.613281 3.9375 C 13.566406 4.023438 13.46875 4.234375 13.324219 4.5625 C 13.179688 4.894531 13.015625 5.292969 12.828125 5.753906 C 12.640625 6.21875 12.441406 6.722656 12.234375 7.265625 C 12.03125 7.808594 11.84375 8.328125 11.671875 8.824219 C 11.503906 9.316406 11.363281 9.765625 11.25 10.164062 C 11.140625 10.566406 11.082031 10.859375 11.082031 11.046875 C 11.082031 11.097656 11.109375 11.121094 11.15625 11.121094 C 11.257812 11.121094 11.472656 10.988281 11.804688 10.726562 C 12.136719 10.464844 12.550781 10.046875 13.050781 9.46875 C 13.550781 8.894531 14.113281 8.15625 14.730469 7.257812 C 15.351562 6.355469 16.003906 5.273438 16.691406 4.011719 C 16.804688 3.621094 16.910156 3.296875 17.011719 3.035156 C 17.109375 2.773438 17.179688 2.585938 17.21875 2.472656 C 17.253906 2.371094 17.335938 2.320312 17.460938 2.320312 C 17.550781 2.320312 17.738281 2.40625 18.035156 2.574219 C 18.328125 2.746094 18.640625 2.9375 18.972656 3.15625 C 19.304688 3.375 19.601562 3.59375 19.863281 3.8125 C 20.125 4.03125 20.269531 4.1875 20.292969 4.273438 C 20.292969 4.3125 20.289062 4.375 20.277344 4.46875 C 20.261719 4.5625 20.246094 4.640625 20.21875 4.703125 C 20.09375 5.042969 19.949219 5.441406 19.789062 5.894531 C 19.625 6.351562 19.460938 6.828125 19.289062 7.320312 C 19.121094 7.816406 18.957031 8.3125 18.792969 8.8125 C 18.628906 9.3125 18.484375 9.78125 18.351562 10.210938 C 18.222656 10.644531 18.113281 11.023438 18.035156 11.355469 C 17.953125 11.6875 17.910156 11.929688 17.910156 12.078125 C 17.910156 12.152344 17.949219 12.191406 18.023438 12.191406 C 18.136719 12.191406 18.296875 12.136719 18.503906 12.03125 C 18.707031 11.925781 18.945312 11.785156 19.214844 11.609375 C 19.484375 11.433594 19.773438 11.230469 20.078125 11 C 20.386719 10.769531 20.699219 10.527344 21.027344 10.277344 L 21.871094 11.421875 "/>
</g>
</svg>
