<?xml version="1.0" standalone="no"?>
<!DOCTYPE svg PUBLIC "-//W3C//DTD SVG 20010904//EN"
 "http://www.w3.org/TR/2001/REC-SVG-20010904/DTD/svg10.dtd">
<svg version="1.0" xmlns="http://www.w3.org/2000/svg"
 width="32.000000pt" height="32.000000pt" viewBox="0 0 32.000000 32.000000"
 preserveAspectRatio="xMidYMid meet">

<g transform="translate(0.000000,32.000000) scale(0.100000,-0.100000)"
fill="#000000" stroke="none">
<path d="M95 282 c-92 -59 -106 -161 -31 -229 31 -29 43 -33 89 -33 44 0 59 5
89 31 70 57 74 151 9 213 -40 38 -112 46 -156 18z m141 -30 c30 -22 45 -64 37
-105 -9 -47 -23 -69 -39 -63 -8 3 -13 2 -10 -3 8 -12 -19 -21 -65 -21 -32 0
-41 4 -49 22 -5 13 -9 17 -9 11 -1 -7 -5 -13 -10 -13 -8 0 7 84 25 143 3 10 0
17 -8 17 -8 0 -13 -14 -13 -39 -1 -21 -9 -51 -20 -67 -17 -26 -19 -27 -26 -9
-16 45 14 115 60 141 32 17 93 11 127 -14z"/>
<path d="M174 178 c-7 -22 -28 -48 -38 -48 -3 0 -6 10 -6 22 0 27 -5 21 -14
-16 -7 -27 -5 -28 19 -22 14 4 34 2 44 -4 23 -12 47 -4 55 17 5 13 4 14 -9 3
-27 -22 -48 -4 -42 35 6 39 2 46 -9 13z"/>
</g>
</svg>
